<svg xmlns="http://www.w3.org/2000/svg" style="display: none;">

    <symbol id="menu" viewBox="0 0 24 24">
        <path d="M2 15.5v2h20v-2H2zm0-5v2h20v-2H2zm0-5v2h20v-2H2z"/>
        <path d="M0 0h24v24H0z" fill="none"/>
    </symbol>
    
    <symbol id="home" viewBox="0 0 24 24">
        <path d="M10 20v-6h4v6h5v-8h3L12 3 2 12h3v8z"/>
        <path d="M0 0h24v24H0z" fill="none"/>
    </symbol>

    <symbol id="layers" viewBox="0 0 24 24">
        <path d="M0 0h24v24H0z" fill="none"/>
        <path d="M11.99 18.54l-7.37-5.73L3 14.07l9 7 9-7-1.63-1.27-7.38 5.74zM12 16l7.36-5.73L21 9l-9-7-9 7 1.63 1.27L12 16z"/>
    </symbol>

    <symbol id="directions" viewBox="0 0 24 24">
        <path d="M21.71 11.29l-9-9c-.39-.39-1.02-.39-1.41 0l-9 9c-.39.39-.39 1.02 0 1.41l9 9c.39.39 1.02.39 1.41 0l9-9c.39-.38.39-1.01 0-1.41zM14 14.5V12h-4v3H8v-4c0-.55.45-1 1-1h5V7.5l3.5 3.5-3.5 3.5z"/>
        <path d="M0 0h24v24H0z" fill="none"/>
    </symbol>

    <symbol id="search" viewBox="0 0 24 24">
        <path d="M15.5 14h-.79l-.28-.27C15.41 12.59 16 11.11 16 9.5 16 5.91 13.09 3 9.5 3S3 5.91 3 9.5 5.91 16 9.5 16c1.61 0 3.09-.59 4.23-1.57l.27.28v.79l5 4.99L20.49 19l-4.99-5zm-6 0C7.01 14 5 11.99 5 9.5S7.01 5 9.5 5 14 7.01 14 9.5 11.99 14 9.5 14z"/>
        <path d="M0 0h24v24H0z" fill="none"/>
    </symbol>

    <symbol id="crane" viewBox="0 0 400 400">
        <path d="M265.121 50.001 L 190.658 83.333 145.329 83.333 C 82.388 83.333,83.333 82.189,83.333 158.333 L 83.333 216.667 71.875 216.682 C 14.128 216.761,-4.612 310.321,46.837 341.689 C 67.735 354.431,298.932 354.431,319.830 341.689 C 371.278 310.321,352.539 216.761,294.792 216.682 C 283.579 216.667,283.333 216.136,283.333 191.907 C 283.333 167.591,282.886 166.638,258.406 138.782 C 244.696 123.181,233.446 109.419,233.406 108.199 C 233.344 106.304,259.082 94.397,319.969 68.153 L 333.689 62.240 332.469 94.662 L 331.250 127.083 307.292 125.657 C 284.241 124.284,283.333 124.618,283.333 134.463 C 283.333 164.223,332.743 178.621,355.787 155.577 L 366.876 144.487 365.730 81.619 L 364.583 18.750 352.083 17.709 C 343.796 17.019,314.487 27.903,265.121 50.001 M197.334 128.554 C 201.597 132.329,210.661 142.448,217.476 151.042 L 229.867 166.667 189.933 166.667 L 150.000 166.667 150.000 142.678 L 150.000 118.690 169.792 120.191 C 180.677 121.016,193.071 124.780,197.334 128.554 M293.736 255.975 C 309.333 262.493,315.287 275.830,310.720 294.025 C 305.759 313.789,289.572 316.667,183.333 316.667 C 77.095 316.667,60.907 313.789,55.947 294.025 C 51.507 276.337,57.371 262.520,72.020 256.151 C 91.604 247.636,273.432 247.492,293.736 255.975 M68.392 272.348 C 62.407 287.943,68.235 297.917,83.333 297.917 C 105.120 297.917,106.063 269.535,84.346 267.442 C 75.246 266.565,69.991 268.181,68.392 272.348 M135.059 272.348 C 129.074 287.943,134.902 297.917,150.000 297.917 C 171.786 297.917,172.730 269.535,151.013 267.442 C 141.913 266.565,136.657 268.181,135.059 272.348 M201.725 272.348 C 195.741 287.943,201.569 297.917,216.667 297.917 C 238.453 297.917,239.397 269.535,217.680 267.442 C 208.579 266.565,203.324 268.181,201.725 272.348 M268.392 272.348 C 262.407 287.943,268.235 297.917,283.333 297.917 C 305.120 297.917,306.063 269.535,284.346 267.442 C 275.246 266.565,269.991 268.181,268.392 272.348 "/>
    </symbol>    
    
    <symbol id="three60" viewBox="0 0 400 400">
        <path id="path0" d="M313.067 76.029 C 295.165 78.729,287.930 100.920,300.836 113.540 C 315.246 127.631,339.199 116.603,338.055 96.404 C 337.344 83.841,325.469 74.159,313.067 76.029 M319.600 91.709 C 324.572 94.489,324.391 101.671,319.285 104.169 C 315.343 106.097,310.670 104.046,309.451 99.851 C 308.250 95.722,310.604 91.943,315.067 90.836 C 316.151 90.567,318.295 90.980,319.600 91.709 M124.112 105.703 C 118.187 108.462,118.386 116.679,124.443 119.401 C 125.326 119.797,126.733 119.880,134.667 120.002 C 144.669 120.156,144.610 120.148,146.405 121.770 C 148.737 123.876,148.656 123.359,148.744 136.859 L 148.821 148.784 136.877 148.859 C 125.685 148.929,124.868 148.966,123.892 149.450 C 117.494 152.625,118.951 162.315,126.000 163.468 C 126.880 163.612,132.375 163.731,138.210 163.732 L 148.821 163.733 148.744 175.533 C 148.658 188.705,148.746 188.072,146.704 190.222 C 144.856 192.168,145.150 192.116,134.933 192.287 C 127.917 192.405,125.500 192.532,124.752 192.821 C 117.993 195.434,118.204 204.984,125.067 206.984 C 127.300 207.634,143.849 207.444,146.692 206.735 C 155.585 204.517,162.074 197.397,163.475 188.321 C 163.657 187.142,163.724 175.783,163.671 154.933 L 163.591 123.333 162.989 121.380 C 160.407 113.001,154.242 107.162,146.171 105.451 C 142.741 104.724,125.798 104.917,124.112 105.703 M194.667 105.610 C 186.744 107.649,180.739 113.688,178.470 121.899 C 177.724 124.598,177.748 187.720,178.496 190.533 C 184.394 212.725,215.340 212.725,221.237 190.533 C 222.074 187.386,221.992 153.558,221.141 150.625 C 217.688 138.723,205.343 131.447,194.447 134.890 L 192.760 135.423 192.847 130.178 C 192.943 124.347,193.099 123.745,194.977 121.948 C 196.928 120.082,197.337 120.012,206.454 120.006 C 215.645 119.999,216.666 119.869,218.708 118.443 C 223.316 115.223,222.624 108.108,217.467 105.696 C 215.577 104.812,198.027 104.746,194.667 105.610 M253.442 105.448 C 245.374 107.276,239.307 113.064,236.745 121.380 L 236.143 123.333 236.062 154.933 C 236.010 175.783,236.076 187.142,236.258 188.321 C 239.896 211.888,272.620 213.936,279.264 191.013 L 279.867 188.933 279.867 156.133 C 279.867 118.963,280.056 122.218,277.597 117.200 C 273.259 108.347,262.898 103.306,253.442 105.448 M260.318 120.314 C 261.774 120.750,263.691 122.524,264.436 124.123 L 265.061 125.467 265.061 156.133 L 265.061 186.800 264.438 188.133 C 261.873 193.617,254.551 193.769,251.644 188.400 L 251.067 187.333 251.067 156.133 L 251.067 124.933 251.656 123.832 C 253.305 120.749,256.898 119.289,260.318 120.314 M203.085 149.807 C 206.931 151.772,206.964 151.956,206.875 171.226 C 206.790 189.414,206.929 188.227,204.623 190.454 C 201.296 193.665,195.812 192.651,193.511 188.400 C 192.708 186.918,192.454 156.112,193.225 153.790 C 194.531 149.861,199.365 147.908,203.085 149.807 M104.095 168.675 C 75.912 175.835,49.454 193.005,47.176 205.612 C 43.838 224.094,90.524 250.996,144.851 261.895 C 150.043 262.936,149.669 263.068,149.324 260.316 C 146.976 241.591,169.500 229.381,184.351 241.329 C 187.654 243.985,216.499 273.378,217.733 275.344 C 218.988 277.343,219.065 277.373,219.611 276.067 C 222.786 268.464,230.368 263.755,239.467 263.735 C 277.552 263.653,320.006 248.395,341.495 227.067 C 355.586 213.081,356.228 202.209,343.744 188.976 C 333.261 177.863,311.497 168.852,295.019 168.803 L 294.171 168.800 294.061 179.667 C 293.929 192.772,293.507 195.196,290.228 201.715 C 278.647 224.737,245.561 228.357,230.248 208.276 C 229.004 206.646,228.908 206.641,227.733 208.163 C 214.163 225.749,185.570 225.749,172.000 208.163 C 170.826 206.641,170.729 206.646,169.485 208.276 C 165.042 214.103,156.903 219.058,148.865 220.829 C 145.247 221.626,127.733 221.905,123.811 221.228 C 99.000 216.945,99.916 181.893,124.933 178.304 L 127.333 177.960 125.405 177.764 C 119.482 177.164,113.857 174.131,110.368 169.658 C 109.600 168.673,108.903 167.787,108.819 167.690 C 108.735 167.593,106.609 168.036,104.095 168.675 M48.967 235.400 C 56.914 268.229,104.761 290.369,175.361 293.887 C 178.719 294.054,181.638 294.243,181.848 294.306 C 182.087 294.377,178.935 297.724,173.398 303.277 C 163.584 313.119,163.478 313.259,163.478 316.400 C 163.478 321.835,168.810 325.380,173.750 323.231 C 175.300 322.557,205.663 292.412,206.549 290.667 C 207.319 289.152,207.387 286.001,206.687 284.372 C 205.605 281.859,175.018 251.647,172.955 251.056 C 167.910 249.608,163.229 253.293,163.516 258.486 C 163.684 261.523,163.886 261.789,172.912 270.896 L 181.200 279.259 173.867 279.114 C 146.241 278.565,116.605 271.656,91.082 259.814 C 72.397 251.145,59.900 243.761,50.812 236.020 C 48.992 234.470,48.720 234.379,48.967 235.400 M349.733 236.810 C 341.161 245.934,316.524 260.977,303.315 265.152 C 302.152 265.520,299.640 266.380,297.733 267.065 C 280.869 273.118,255.464 277.857,239.831 277.866 C 233.556 277.869,229.870 283.297,232.505 288.650 C 234.424 292.547,236.605 293.190,244.800 292.277 C 305.230 285.544,339.931 268.170,349.727 239.743 C 350.898 236.344,350.900 235.568,349.733 236.810 "/>
    </symbol>

    <symbol id="users" viewBox="0 0 400 400">
        <path id="path0" d="M90.029 32.064 C 42.297 40.639,24.394 100.139,59.558 133.336 C 77.256 150.044,104.211 154.049,125.710 143.165 L 131.498 140.234 133.197 133.489 C 136.453 120.567,143.220 108.907,153.056 99.270 L 158.984 93.461 158.759 87.363 C 157.478 52.714,124.185 25.928,90.029 32.064 M290.029 32.064 C 263.652 36.803,242.505 59.978,241.325 85.439 L 241.121 89.863 245.756 93.239 C 258.847 102.772,269.547 118.960,273.009 134.468 C 275.299 144.722,274.672 143.896,282.035 146.380 C 321.835 159.808,362.808 126.628,358.553 84.416 C 355.141 50.572,323.131 26.117,290.029 32.064 M188.281 93.790 C 143.541 105.373,128.789 162.805,162.530 194.043 C 199.271 228.058,259.146 203.978,261.513 154.233 C 263.436 113.816,227.023 83.761,188.281 93.790 M66.936 153.197 C 35.952 156.469,11.192 177.780,1.823 209.239 C 0.558 213.484,-0.901 290.625,0.283 290.625 C 0.490 290.625,6.224 292.208,13.025 294.143 C 35.099 300.423,61.860 305.507,78.906 306.660 C 82.988 306.936,86.943 307.332,87.695 307.540 C 88.943 307.885,89.064 307.077,89.083 298.295 C 89.179 252.303,109.476 220.048,147.266 205.831 C 150.273 204.700,152.865 203.644,153.024 203.485 C 153.184 203.326,151.204 200.858,148.624 198.000 C 139.740 188.157,132.731 172.545,131.473 159.799 C 130.907 154.068,130.707 153.541,128.906 153.041 C 126.171 152.282,74.365 152.412,66.936 153.197 M274.990 155.273 C 274.944 168.309,267.327 186.541,256.858 198.674 C 254.707 201.167,253.075 203.327,253.231 203.474 C 253.388 203.621,256.411 204.881,259.950 206.273 C 295.345 220.204,315.126 250.248,316.174 291.671 L 316.586 307.951 324.894 307.424 C 349.983 305.834,374.982 300.366,393.601 292.397 L 400.093 289.618 399.795 251.645 C 399.470 210.281,399.594 211.530,394.616 199.298 C 386.063 178.281,367.142 161.504,345.230 155.508 C 336.217 153.041,326.571 152.372,299.805 152.357 L 275.000 152.344 274.990 155.273 M162.540 214.941 C 130.325 221.701,106.892 247.711,103.150 280.859 C 102.714 284.727,102.354 302.026,102.350 319.302 L 102.344 350.714 109.961 353.052 C 177.472 373.776,251.293 373.532,297.900 352.431 L 303.221 350.022 302.918 312.706 C 302.593 272.670,302.655 273.345,298.206 261.252 C 289.658 238.015,266.973 219.350,241.381 214.495 C 230.883 212.503,172.585 212.833,162.540 214.941 "/>
    </symbol>
</svg>
